<svg width="1024" height="1024" viewBox="0 0 1024 1024" fill="none" xmlns="http://www.w3.org/2000/svg">
<path d="M896 796.107H128L512 131L896 796.107ZM209.736 747.853H812.914L511.325 225.485L209.736 747.853Z" fill="white"/>
<path d="M719.398 693.862H303.252L511.325 333.468L719.398 693.862ZM364.037 658.767H658.613L511.325 403.657L364.037 658.767Z" fill="white"/>
<path d="M512 476.546L596.749 623.335H427.251L512 476.546Z" fill="white"/>
<path d="M321.005 356.414L368.248 385.435L382.42 360.464L353.4 344.941L370.947 315.246L389.844 325.369L419.54 277.452H368.248L321.005 356.414Z" fill="white"/>
<path d="M704.345 358.439L657.102 387.46L642.929 362.489L671.95 346.966L654.402 317.271L635.505 327.394L605.81 279.477H657.102L704.345 358.439Z" fill="white"/>
<path d="M227.401 519.19L275.203 547.279L259.809 571.516L232.479 553.18L214.497 582.614L232.307 594.546L203.94 643.262L179.86 597.974L227.401 519.19Z" fill="white"/>
<path d="M796.349 517.166L748.546 545.254L763.941 569.491L791.271 551.155L809.252 580.589L791.442 592.522L819.809 641.237L843.89 595.949L796.349 517.166Z" fill="white"/>
<path d="M398.282 850.94L398.282 795.496L371.621 795.496L371.621 829.255L335.937 829.255L335.937 808.328L279.162 808.328L319.655 850.94L398.282 850.94Z" fill="white"/>
<path d="M623.043 850.94L623.043 795.496L649.704 795.496L649.704 829.255L685.387 829.255L685.387 808.328L742.163 808.328L701.669 850.94L623.043 850.94Z" fill="white"/>
</svg>
